<?xml version="1.0" encoding="UTF-8" standalone="no"?>
<!-- Created with matplotlib (https://matplotlib.org/) -->

<svg
   xmlns:dc="http://purl.org/dc/elements/1.1/"
   xmlns:cc="http://creativecommons.org/ns#"
   xmlns:rdf="http://www.w3.org/1999/02/22-rdf-syntax-ns#"
   xmlns:svg="http://www.w3.org/2000/svg"
   xmlns="http://www.w3.org/2000/svg"
   xmlns:sodipodi="http://sodipodi.sourceforge.net/DTD/sodipodi-0.dtd"
   xmlns:inkscape="http://www.inkscape.org/namespaces/inkscape"
   height="563.32928pt"
   version="1.1"
   viewBox="0 0 948.90772 563.32928"
   width="948.90771pt"
   id="svg434"
   sodipodi:docname="time-radius.svg"
   inkscape:version="0.92.4 (5da689c313, 2019-01-14)">
  <metadata
     id="metadata438">
    <rdf:RDF>
      <cc:Work
         rdf:about="">
        <dc:format>image/svg+xml</dc:format>
        <dc:type
           rdf:resource="http://purl.org/dc/dcmitype/StillImage" />
        <dc:title />
      </cc:Work>
    </rdf:RDF>
  </metadata>
  <sodipodi:namedview
     pagecolor="#ffffff"
     bordercolor="#666666"
     borderopacity="1"
     objecttolerance="10"
     gridtolerance="10"
     guidetolerance="10"
     inkscape:pageopacity="0"
     inkscape:pageshadow="2"
     inkscape:window-width="1920"
     inkscape:window-height="1177"
     id="namedview436"
     showgrid="false"
     fit-margin-top="5"
     fit-margin-left="5"
     fit-margin-right="5"
     fit-margin-bottom="5"
     inkscape:zoom="0.63127976"
     inkscape:cx="726.23686"
     inkscape:cy="737.79541"
     inkscape:window-x="1912"
     inkscape:window-y="-8"
     inkscape:window-maximized="1"
     inkscape:current-layer="svg434" />
  <defs
     id="defs4"
     style="stroke-linecap:butt;stroke-linejoin:round">
    <style
       type="text/css"
       id="style2">
*{stroke-linecap:butt;stroke-linejoin:round;}
  </style>
    <clipPath
       id="pa2d81ef333"
       style="stroke-linecap:butt;stroke-linejoin:round">
      <rect
         height="498.95999"
         width="892.79999"
         x="72.890312"
         y="10.7"
         id="rect443"
         style="stroke-linecap:butt;stroke-linejoin:round" />
    </clipPath>
    <clipPath
       id="pa2d81ef333-4"
       style="stroke-linecap:butt;stroke-linejoin:round">
      <rect
         height="498.95999"
         width="892.79999"
         x="72.890312"
         y="10.7"
         id="rect443-0"
         style="stroke-linecap:butt;stroke-linejoin:round" />
    </clipPath>
    <clipPath
       id="p625fecc4e6-0"
       style="stroke-linecap:butt;stroke-linejoin:round">
      <rect
         height="498.95999"
         width="892.79999"
         x="63.346561"
         y="10.7"
         id="rect429-6"
         style="stroke-linecap:butt;stroke-linejoin:round" />
    </clipPath>
    <clipPath
       id="p625fecc4e6-0-7"
       style="stroke-linecap:butt;stroke-linejoin:round">
      <rect
         height="498.95999"
         width="892.79999"
         x="63.346561"
         y="10.7"
         id="rect429-6-8"
         style="stroke-linecap:butt;stroke-linejoin:round" />
    </clipPath>
  </defs>
  <g
     id="line2d_3"
     style="stroke-linecap:butt;stroke-linejoin:round"
     transform="matrix(1.0000225,0,0,0.95107877,-17.8486,5.3845813)">
    <path
       clip-path="url(#p625fecc4e6)"
       d="M 208.66613,509.66 V 10.7"
       style="fill:none;stroke:#b0b0b0;stroke-width:0.80000001;stroke-linecap:square;stroke-linejoin:round"
       id="path32"
       inkscape:connector-curvature="0" />
  </g>
  <g
     id="line2d_5"
     style="stroke-linecap:butt;stroke-linejoin:round"
     transform="matrix(1.0000225,0,0,0.95107877,-17.8486,5.3845813)">
    <path
       clip-path="url(#p625fecc4e6)"
       d="M 313.40387,509.66 V 10.7"
       style="fill:none;stroke:#b0b0b0;stroke-width:0.80000001;stroke-linecap:square;stroke-linejoin:round"
       id="path53"
       inkscape:connector-curvature="0" />
  </g>
  <g
     id="line2d_7"
     style="stroke-linecap:butt;stroke-linejoin:round"
     transform="matrix(1.0000225,0,0,0.95107877,-17.8486,5.3845813)">
    <path
       clip-path="url(#p625fecc4e6)"
       d="M 418.14162,509.66 V 10.7"
       style="fill:none;stroke:#b0b0b0;stroke-width:0.80000001;stroke-linecap:square;stroke-linejoin:round"
       id="path74"
       inkscape:connector-curvature="0" />
  </g>
  <g
     id="line2d_9"
     style="stroke-linecap:butt;stroke-linejoin:round"
     transform="matrix(1.0000225,0,0,0.95107877,-17.8486,5.3845813)">
    <path
       clip-path="url(#p625fecc4e6)"
       d="M 522.87937,509.66 V 10.7"
       style="fill:none;stroke:#b0b0b0;stroke-width:0.80000001;stroke-linecap:square;stroke-linejoin:round"
       id="path95"
       inkscape:connector-curvature="0" />
  </g>
  <g
     id="line2d_11"
     style="stroke-linecap:butt;stroke-linejoin:round"
     transform="matrix(1.0000225,0,0,0.95107877,-17.8486,5.3845813)">
    <path
       clip-path="url(#p625fecc4e6)"
       d="M 627.61711,509.66 V 10.7"
       style="fill:none;stroke:#b0b0b0;stroke-width:0.80000001;stroke-linecap:square;stroke-linejoin:round"
       id="path116"
       inkscape:connector-curvature="0" />
  </g>
  <g
     id="line2d_13"
     style="stroke-linecap:butt;stroke-linejoin:round"
     transform="matrix(1.0000225,0,0,0.95107877,-17.8486,5.3845813)">
    <path
       clip-path="url(#p625fecc4e6)"
       d="M 732.35486,509.66 V 10.7"
       style="fill:none;stroke:#b0b0b0;stroke-width:0.80000001;stroke-linecap:square;stroke-linejoin:round"
       id="path137"
       inkscape:connector-curvature="0" />
  </g>
  <g
     id="line2d_15"
     style="stroke-linecap:butt;stroke-linejoin:round"
     transform="matrix(1.0000225,0,0,0.95107877,-17.8486,5.3845813)">
    <path
       clip-path="url(#p625fecc4e6)"
       d="M 837.09261,509.66 V 10.7"
       style="fill:none;stroke:#b0b0b0;stroke-width:0.80000001;stroke-linecap:square;stroke-linejoin:round"
       id="path158"
       inkscape:connector-curvature="0" />
  </g>
  <g
     id="line2d_19"
     style="stroke-linecap:butt;stroke-linejoin:round"
     transform="matrix(0.93837976,0,0,0.77363327,26.678679,-12.004593)">
    <path
       clip-path="url(#p625fecc4e6)"
       d="M 63.346563,495.50841 H 956.14656"
       style="fill:none;stroke:#b0b0b0;stroke-width:0.80000001;stroke-linecap:square;stroke-linejoin:round"
       id="path230"
       inkscape:connector-curvature="0" />
  </g>
  <g
     id="line2d_23"
     style="stroke-linecap:butt;stroke-linejoin:round"
     transform="matrix(0.93837976,0,0,0.77363327,26.678679,-12.004593)">
    <path
       clip-path="url(#p625fecc4e6)"
       d="M 63.346563,342.06455 H 956.14656"
       style="fill:none;stroke:#b0b0b0;stroke-width:0.80000001;stroke-linecap:square;stroke-linejoin:round"
       id="path272"
       inkscape:connector-curvature="0" />
  </g>
  <g
     id="line2d_27"
     style="stroke-linecap:butt;stroke-linejoin:round"
     transform="matrix(0.93837976,0,0,0.77363327,26.678679,-12.004593)">
    <path
       clip-path="url(#p625fecc4e6)"
       d="M 63.346563,188.62069 H 956.14656"
       style="fill:none;stroke:#b0b0b0;stroke-width:0.80000001;stroke-linecap:square;stroke-linejoin:round"
       id="path308"
       inkscape:connector-curvature="0" />
  </g>
  <path
     style="fill:none;stroke:#0000ff;stroke-width:1.70540142;stroke-linecap:square;stroke-linejoin:round;stroke-miterlimit:4;stroke-dasharray:none;stroke-opacity:1"
     clip-path="url(#p625fecc4e6)"
     d="m 103.92838,437.3716 c 0.75175,13.34722 0.62569,26.74521 0.97409,40.11329 0.25806,-4.04658 0.32664,-33.89287 1.28101,-19.60575 0.41947,23.3638 0.68981,2.2297 0.99186,-9.4427 1.4215,-5.54913 0.80686,19.80513 1.32763,24.83805 0.43199,3.8192 0.26111,-31.02774 1.18854,-22.54343 0.43463,9.94916 0.62706,33.26382 0.96457,10.50363 0.015,-19.13518 1.2963,-15.21522 1.23802,1.32127 0.34342,21.58825 0.28558,-3.28838 1.12576,-11.7903 0.6052,8.66074 0.85498,34.96984 1.2185,12.52555 0.0774,-19.9046 1.15625,-14.30081 1.22826,1.87114 0.30304,25.42869 0.51275,-19.93712 1.52956,-4.06916 0.5613,24.92183 0.3536,-11.35923 1.62459,-0.76332 0.58106,24.42119 0.9845,-8.62381 2.11054,5.82469 0.40982,17.04183 0.76456,-27.84986 1.51022,-4.07189 0.38558,25.41377 1.31894,-12.38358 2.17877,9.11991 0.13965,-1.61732 1.67299,-19.15323 1.99314,1.71108 0.97232,-19.40643 1.69118,13.59051 2.35404,-7.62004 1.68646,21.31554 1.63507,-8.96748 2.75873,5.91776 0.36405,-11.8001 1.47669,-5.88989 2.03058,2.28842 1.42152,-4.17231 2.4692,-12.0877 3.49039,-0.52665 0.86398,-7.39951 1.46698,-1.68068 3.24693,-2.86023 0.82771,1.56996 0.61075,-1.64314 2.75995,-0.0399 0.88712,5.42728 2.26406,-1.61129 2.959,1.28667 0.46834,-3.32954 3.38633,4.89025 2.88576,0.57263 0.75084,-2.94253 1.55804,0.31275 2.9224,-2.09902 1.2843,8.07163 1.77101,-4.04713 3.3119,1.39491 1.4916,2.95608 1.75322,-5.11297 2.93863,0.67646 1.57986,-1.8919 2.74255,0.40077 3.73408,-2.89849 1.7721,5.77034 2.33789,-2.55088 3.45595,0.87497 1.11213,6.73672 2.21586,-7.34839 3.30794,2.13112 1.07038,-8.25671 2.61254,2.96533 3.7078,-3.66707 0.90497,4.50737 1.41989,-2.12584 2.92251,3.26678 1.33745,-4.6195 2.60374,5.0186 2.84126,-4.56957 0.40783,4.77601 2.61243,5.30913 4.05879,1.84745 0.78616,3.6657 4.21701,2.33384 2.84137,1.37337 1.58743,3.12004 1.27764,-3.43479 2.9225,1.47771 1.28475,-4.23116 2.31814,1.51663 3.49076,-1.07563 1.56144,2.92408 2.04255,-0.86238 4.14042,1.08028 1.35792,-3.64045 1.03082,1.72678 3.08483,-0.30377 2.09074,-0.57469 2.76058,-3.5185 3.9777,-0.38672 0.58878,-1.83002 1.73811,1.38066 3.16602,-0.81027 1.19919,-0.79065 0.97662,1.2004 2.59789,0.40657 0.61377,-1.56852 2.29201,-9.6e-4 3.40944,-2.05298 2.12954,-0.27647 3.62728,-0.33266 3.73412,0.32543 1.49979,-1.72564 1.99899,3.93856 3.08479,-1.66026 0.98441,6.8034 1.6385,0.17821 3.0848,2.03469 1.50673,-1.0544 2.86402,3.39508 3.73409,-1.14166 1.65102,2.52319 2.35267,-1.214 3.16608,2.20809 1.15571,-0.94768 3.53417,0.30809 2.67901,-1.26272 1.20717,-2.63119 2.50074,1.82271 3.73444,-0.36974 1.12334,1.41688 2.09218,-2.59898 3.24714,0.87307 3.11,0.25791 -0.38412,-4.6524 3.81533,-1.72932 0.61631,-2.52757 1.99292,4.44758 2.51675,0.38219 1.82756,-0.52098 3.38129,1.35825 3.81532,-2.09145 0.96643,3.84841 2.08706,1.511 3.40961,2.21884 0.93079,-1.79058 2.63159,-0.77949 3.24757,-0.87926 2.26507,4.36386 1.52797,-5.6701 3.08485,1.19232 1.31033,-5.0026 4.35741,-3.43123 3.49067,-1.47309 1.42194,0.55527 2.20361,-1.91987 3.73411,0.44454 1.86194,-0.93154 2.38321,0.81869 4.3838,-0.58152 0.41118,-3.18726 2.62615,4.58265 3.40972,-1.81347 0.85407,3.13841 2.25513,-1.85935 3.00361,1.6464 1.13833,0.9759 1.21466,-0.20191 2.6792,0.6813 0.42073,-7.74027 5.46844,6.09353 3.73418,-0.30225 1.5914,-2.67815 1.25821,-1.70911 3.2473,-1.44548 0.3679,-2.57195 4.45203,1.46039 3.32831,0.94982 1.37384,-3.49539 2.36503,2.00799 3.57223,-2.39544 2.32945,3.61231 2.05503,-0.0561 4.22139,0.37019 0.80728,1.84113 4.49595,0.8547 3.24713,-0.27159 0.70203,2.37372 3.63546,-0.22559 2.51667,-1.08787 1.9264,1.72598 3.97966,1.19956 3.32824,0.44804 -4.93308,1.6312 19.58602,5.22501 2.76015,-0.092 0.65947,1.73646 4.10121,2.29772 2.92244,0.90381 1.2124,-0.72308 2.80343,-2.80864 3.76786,0.38746 0.81892,-2.30581 4.02507,0.0436 2.64516,-1.09318 1.30199,-1.62181 2.19657,0.31905 4.70817,-0.70124 0.87125,-2.78149 2.37904,1.85308 3.97766,-0.0138 0.25781,-4.782 1.66863,0.8505 2.59792,-1.5604 0.72585,3.47671 2.01859,-2.41563 3.08488,1.02659 0.86491,-4.70072 1.48132,2.75208 2.76014,-0.40507 0.82736,-3.8707 2.71742,3.57118 3.32833,-1.2747 1.42025,2.4114 2.72299,-3.03431 3.89649,1.76602 1.40716,-5.47359 0.91145,1.56872 3.73438,-2.50866 0.72548,3.30841 1.47566,-1.09969 2.59784,1.36413 1.78887,-3.98267 1.93201,0.86576 2.84136,-1.6833 0.55489,-4.66663 1.64633,5.19918 2.76013,-0.85774 2.32334,-0.57194 0.72572,2.20093 2.67899,-0.26964 0.94892,0.70588 2.95086,4.91853 3.65291,-1.15689 1.39097,3.00401 2.60403,-0.85671 3.16612,3.63811 0.93741,-3.30597 1.40543,1.53519 2.51669,-3.21609 0.63745,2.55127 3.79444,-0.81515 4.05899,2.06998 1.55994,-4.56962 2.55817,0.3657 4.05888,-2.37529 0.67755,2.63143 2.54291,1.30676 2.67903,-3.09195 -0.009,3.6245 1.31745,4.46795 2.67905,2.56864 1.16045,3.63322 1.3957,-0.63623 3.08495,-0.18405 1.02122,1.30234 4.04171,-2.14257 2.7601,-1.30285 0.98964,2.97001 1.93807,0.84318 2.76024,1.0511 0.85933,-4.65636 2.11102,1.04076 3.24704,-1.75684 0.99411,4.39098 1.01613,0.47268 2.3544,2.69747 2.35534,-6.10143 0.68548,-3.63625 3.16592,-3.03358 0.93381,2.59194 2.62715,1.65517 3.49072,0.16722 1.69361,1.19643 3.79844,-0.0149 2.51662,0.18411 0.80095,3.45482 1.43698,-0.91859 2.51682,-0.97288 2.07085,2.50854 0.27996,-2.29626 3.08481,2.66992 1.0496,-7.26057 1.53414,0.14042 3.00383,-3.01821 0.74827,1.60747 1.9838,-1.14054 2.51673,1.31042 1.06109,-3.29677 2.18376,0.45266 2.51669,-2.91524 1.0597,-1.35881 1.27786,6.1334 2.27318,0.26859 1.26425,1.27708 1.72514,3.48387 2.92258,0.67676 0.6331,-1.07932 1.97044,2.20899 3.08488,-1.20465 0.7153,3.62243 1.64884,-0.66386 2.27332,0.2532 0.42434,0.21948 0.98655,1.17494 2.27317,-0.70578 0.62841,2.71448 1.73049,1.10329 2.59788,-0.20106 0.87299,-0.0707 2.23814,2.1075 2.43553,-0.42503 0.80382,-1.80273 2.7743,2.23299 2.27315,1.56664 1.44729,-6.48274 1.49238,2.13249 2.67896,-1.13855 1.12039,-2.40782 4.33525,2.64367 2.4355,0.0875 1.82966,2.49185 2.36991,-3.70016 3.8156,0.78115 1.34655,-2.8721 2.3421,-3.31788 3.97756,0.01 0.64006,-3.79112 2.17844,-0.96927 2.35441,-3.65489 1.60626,5.3058 1.7992,-0.19014 2.51679,0.95139 1.87152,-2.71357 0.91575,0.47116 2.11092,0.028 0.55053,0.52325 2.57401,1.22458 2.59803,-2.41848 0.56184,2.96282 3.64627,1.66944 2.67893,1.55285 0.36731,1.59332 3.49345,-0.13811 2.67907,-0.26552 2.00031,-2.1416 3.42803,1.57018 2.59786,0.0859 0.80174,-3.1977 1.66088,3.73934 2.679,-0.69666 1.0879,1.10747 3.60893,-1.43883 3.9778,0.37287 0.45821,-3.29827 2.2991,0.33357 2.76056,0.7672 0.48702,-14.48172 1.21625,4.62033 3.5716,-4.34708 0.5471,5.70861 1.05861,1.13456 2.59796,3.17625 0.91792,-1.58884 1.73133,-2.84322 2.0298,-2.61779 1.73248,1.37639 1.84787,2.42668 2.59782,0.7181 1.04345,1.44737 1.37922,-5.27743 2.92249,0.38363 0.61006,-3.82498 2.07656,3.82858 2.92253,-1.77235 1.02319,1.91685 1.61937,-0.2731 2.598,0.5892 0.85407,-1.69748 2.67385,-2.81183 2.11084,-0.99581 0.63179,1.01186 1.87361,2.36971 2.35438,-0.82712 0.7184,-0.73626 0.89058,2.48191 2.4358,-0.78303 1.26424,6.09918 1.41895,-1.54569 3.00392,2.56104 1.84449,-8.19159 2.92713,4.77935 3.97769,-4.4222 1.21031,5.31913 4.35789,3.58345 3.00372,1.92569 0.72826,0.0834 1.5136,0.98597 2.59792,-0.53557 0.59298,-1.40475 1.91388,2.47642 3.00365,-1.32731 0.94039,0.48214 1.85442,5.4632 2.67906,0.78069 2.23644,3.81876 1.4548,-3.06628 2.43555,-1.29153 1.01869,3.44734 3.81083,1.41145 2.76018,0.537 1.03918,0.96669 2.49728,-1.09837 2.59786,1.65723 1.26009,-2.53281 5.01341,-3.2686 2.92252,-2.63148 1.0205,2.47992 1.28149,-1.54783 2.84151,1.22261 1.77642,-3.0543 2.21402,-0.22732 3.16606,-0.89918 0.84783,-0.81327 2.02352,1.89865 2.7435,-1.7249 1.19388,-0.43995 4.10601,-0.53212 2.93909,0.53417 0.33425,1.90773 2.89358,1.83288 2.35436,0.64598 0.71388,-1.61194 1.49275,-0.78202 2.35445,-1.13242 1.37441,0.23807 3.44305,1.06146 2.35438,0.27463 1.25195,-2.70005 2.14341,0.92908 2.76026,0.36517 1.50084,-3.66624 2.20721,1.42444 3.49062,-1.87966 0.52913,-3.35149 2.45356,2.04703 2.51657,-1.8597 1.33165,4.51572 1.35923,-2.47888 3.00367,3.6213 0.85545,-1.87989 2.25543,-5.16905 2.59787,-0.8317 0.5772,-2.26958 3.22725,0.74996 2.43546,-1.14428 0.93165,4.35776 1.88265,-8.75174 2.67892,0.0859 0.95908,-2.08058 3.64276,-1.57652 2.27319,-1.5037 1.0336,0.0419 1.94728,1.31569 2.51672,0.85789 1.22183,-3.18975 2.24503,-0.31298 3.49059,-4.14297 0.20427,5.17724 1.47647,2.91592 2.27321,1.36256 1.23474,3.0785 1.43358,-2.88316 2.51683,1.39328 1.99169,0.18775 1.95796,-1.66995 4.14043,-1.37015 1.64841,0.83133 2.06311,-2.44479 3.16593,0.57695 0.97866,-4.65008 1.92429,4.57749 2.92274,-1.49401 5.17683,-3.84954 -8.44095,6.92408 2.43546,-0.7136 0.80428,1.67438 1.71993,2.46569 3.32826,-0.0306 0.75063,-1.29008 2.22245,2.83318 2.92252,-0.9421 0.60816,1.34674 2.36586,1.41436 3.00389,1.52673 0.10318,-3.08615 1.70874,0.9664 2.51663,-1.76457 2.28571,0.60545 1.5149,-2.3042 2.27314,1.32423 0.79795,2.07717 1.88336,-6.44252 2.92246,-0.65521 1.68671,-3.96108 1.20623,-4.30183 2.51661,0.23774 1.74151,-5.43545 2.504,-1.6136 3.08485,-1.18148 1.00302,1.44193 1.67596,-6.52843 2.51669,1.19531 1.10239,-5.37596 3.52025,0.49591 2.43543,-1.53751 1.09856,1.50464 0.79108,-2.92436 2.5978,0.28238 1.25875,-3.38635 2.38718,-0.85903 3.57223,-2.82804 0.80555,6.92936 1.86537,-2.5445 2.92249,-0.64292 0.83275,0.80705 2.73182,-1.73785 2.02967,-0.66789 0.18795,3.73171 2.71284,0.49748 3.16595,-0.80863 0.61237,4.13244 1.53007,-0.62614 2.43556,1.47622 0.96194,-1.37093 3.18307,0.74508 2.35432,-0.34691 0.27055,0.0348 1.8642,-3.13621 2.35432,-0.39915 0.84448,0.16879 1.40519,-5.06918 2.19196,-0.54163 0.98523,0.81126 3.82316,-1.09818 2.35434,-1.4669 0.79742,-3.63309 3.59458,-2.3743 2.67894,-0.0998 1.07515,1.49462 2.35466,1.47834 3.08504,-1.58044 0.54314,4.19567 3.04546,5.17377 2.35434,2.97247 0.88008,-4.31801 3.55376,-0.68256 2.59777,-1.31191 1.26165,-3.43753 2.45541,-2.44081 3.24719,-0.35615 0.96202,-4.7567 0.99641,-0.81153 2.51674,-1.74152 0.7519,-1.49039 1.78162,-4.74213 2.76005,0.40202 0.93797,-5.57603 1.20676,1.01128 2.84133,-0.89457 2.68324,0.0112 -0.48128,-1.34211 2.9224,-1.43467 0.9511,-2.40542 2.9924,-3.31084 2.84123,-0.50782 1.47567,1.64781 0.87522,-1.02219 2.27311,-0.0644 0.73061,-6.59513 3.03314,-0.85768 2.02963,0.34977 1.54484,0.0654 1.99191,-1.5374 2.11083,-1.95177 1.00024,4.24592 2.51707,-8.33181 2.92239,-1.45775 0.5936,3.29868 2.84416,-2.29413 1.86729,-0.81044 0.34,0.42324 3.17868,1.63475 2.67891,1.39946 0.32526,-1.3305 4.44742,-1.52862 2.76009,-0.96207 1.87087,-0.87471 1.15299,0.66392 2.43543,-2.10626 0.68805,1.59221 1.21275,3.35921 2.43539,-0.16919 1.3364,-0.49137 3.14799,0.86336 2.11081,2.05768 0.86643,-2.55077 2.69852,-0.17569 2.34309,-1.60694 0.86586,-0.38201 1.25834,-4.75968 2.36552,-1.15967 0.71989,-5.78707 1.72638,8.27187 2.19187,-4.83962 0.41911,6.11529 0.97152,0.28791 1.78615,5.28152 0.87912,-1.92836 1.82825,-5.92368 2.35435,0.24394 1.31914,-4.02613 3.57766,-1.17612 2.59772,-3.72873 -2.84328,4.54861 5.05397,-2.93157 1.94852,0.17443 0.91528,-6.89496 1.28957,1.42445 2.27305,-3.07501 0.93333,0.85214 3.12296,-0.39723 2.27308,-0.15964 0.47738,2.84243 2.37362,2.27421 1.94841,0.10748 0.48639,-9.72846 2.00285,6.62701 2.67892,-2.4137 0.51938,5.26559 1.47616,-5.50889 2.11071,1.048 0.91189,-0.54859 0.92661,0.95169 2.02955,-2.12987 1.73159,-1.71786 2.87728,-0.54631 2.35424,-0.0937 0.83962,-1.42614 2.56882,-2.98332 1.82935,-3.36349 0.40173,-5.49692 1.41617,6.99585 1.98614,-2.65493 0.8055,0.52685 1.72477,5.1196 2.15467,0.40927 0.3142,-1.98527 1.4239,5.90306 2.06667,-1.37902 0.88162,-4.88759 1.31245,10.70774 1.86737,0.0583 2.01499,3.59795 1.51027,-10.24398 2.59772,-0.43413 1.55143,-6.01925 3.94019,-1.40773 2.51643,-0.97283 0.87086,1.37485 1.39923,-9.34648 2.67875,-1.87969 1.07382,-0.14832 3.21866,-4.42168 2.56318,-4.61737 1.34816,6.36957 1.46379,-8.95019 2.06395,-0.83145 0.66154,2.96952 2.29907,3.58087 2.2729,-9.02561 -0.0313,13.56345 1.95233,-2.20393 2.02943,9.57627 1.00847,-2.90446 3.20217,-2.05104 2.31963,-4.80432 1.17757,3.20156 1.66026,-6.17892 2.06403,-0.17163 0.19834,-3.98458 1.20624,-9.73181 1.62364,-1.48547 0.66786,-11.22851 1.65752,0.37466 2.08144,-4.9265 0.68376,-9.5403 0.98068,0.91535 1.57163,-4.23256 1.31041,5.67832 1.12621,1.89312 2.05499,-2.59289 0.72227,-0.94436 1.05382,2.67034 1.75587,-1.81029 0.66007,7.15577 0.70537,-11.12391 1.58645,0.92163 0.69382,0.73993 0.73731,-10.4876 1.74638,-5.63886 0.62082,7.98409 0.28257,-5.99341 1.38014,-2.66229 1.29909,15.54777 1.00146,-15.12604 1.72663,-2.76085 0.62412,7.73663 1.13474,-6.52987 1.68295,1.66992 0.74534,-4.58627 1.239,-1.42654 1.55101,-2.79391 0.84742,2.64076 0.72803,-10.7 1.77751,-6.90374 0.56214,16.51017 1.13184,-16.25127 1.46129,-12.03 0.43432,17.11252 0.92977,-12.00178 1.21763,10.42953 1.0259,-2.72711 1.20838,-2.99051 1.8829,-9.93304 0.48713,9.56733 2.36693,-2.0656 1.78695,-0.8009 0.8774,-8.80765 0.77501,7.29371 1.81333,-5.82863 0.58414,6.00715 1.5477,3.62729 1.58713,-4.92444 0.49643,-8.69329 0.75809,18.329 1.50359,3.12382 0.49651,-6.25908 1.04559,-12.93893 1.4774,-6.40764 0.68584,2.69401 0.92974,-6.28806 1.31821,-9.05808 0.10328,-21.18342 0.9652,-7.26255 1.05077,5.37576 0.52843,-17.45611 1.27795,-9.02903 1.54757,-5.88041 0.20858,-13.98907 1.36095,8.26666 1.45601,-11.74262 0.31763,4.85311 1.36391,8.8953 1.58554,-1.97903 0.58248,-4.98621 0.87117,-14.67375 1.5804,-8.72521 0.95324,19.71079 0.42265,-3.85215 1.70473,-0.86699 0.83894,-5.04197 2.64074,-0.59097 1.94841,0.81633 0.17209,-13.19196 0.54466,-19.12064 1.38006,-14.58018 0.522,20.58217 0.60377,-2.08244 1.37308,-9.70691 0.51414,3.1097 0.7669,17.03155 1.4682,6.36179 0.90014,1.79242 1.25019,-6.94823 1.70475,-15.03591 0.56051,29.23843 0.26791,-2.19644 1.16163,0.31711 0.4434,-3.54863 1.06385,20.64434 1.60003,2.79865 0.0483,-22.30989 0.92529,-7.39443 1.1358,-1.75073 0.45433,-12.67625 0.72484,-4.53606 1.62252,-8.55848 0.8697,17.77485 0.55613,-20.56409 1.30394,-14.35576 0.42434,24.70729 0.7331,-19.17372 1.26937,-0.77078 -0.0364,11.29456 1.18867,18.66626 1.17699,4.84017 0.1184,-8.54646 1.09148,-16.38882 1.33009,-3.17966 0.21073,17.03873 0.95761,-17.90184 1.33265,-3.18413 0.30054,16.89327 0.66227,-15.4755 0.80781,-21.5008 0.13694,-22.18698 0.99519,-4.87579 0.95898,7.19474 0.32864,11.67713 1.02122,5.80298 1.22287,-8.67509 0.67549,4.28453 0.53886,31.47193 1.15024,14.65835 1.16351,7.43484 1.14237,-11.68337 1.5946,-18.47406 0.44894,15.79024 0.54554,-5.14249 1.43688,10.39181 0.37933,17.65409 0.44255,-27.25043 1.07892,-4.84912 0.20868,-13.75098 0.9708,-17.06864 1.09787,1.93381 0.35493,1.5666 1.04881,-9.99329 0.96925,-20.17564 0.13094,-19.19619 0.9573,-3.531 0.88482,6.40429 0.003,17.55173 1.04996,-6.59527 1.20494,8.30172 0.2318,-26.08417 1.10474,4.42364 1.30284,-1.81577 0.51501,-7.26002 0.92355,-12.25254 1.55445,-1.71488 0.77387,19.29884 1.00392,-24.77851 1.51087,-6.79649 -0.26097,10.47162 1.51074,2.98729 1.77212,-3.81744 0.72547,-2.53552 0.64674,-9.5872 0.79595,-22.86408 -0.11783,-10.61034 0.74418,-32.66798 0.94131,-9.52046 0.2072,7.33696 0.15804,25.04816 0.58136,28.58757 0.59405,-7.2266 1.33076,6.55341 1.30281,-11.4668 0.10104,-5.8281 0.56918,-35.84079 1.03489,-16.73219 0.21363,12.54758 0.35765,29.57853 0.74312,7.14852 0.66963,18.10559 0.69478,-10.64234 1.22967,3.5097 0.44884,20.29964 -0.002,11.4255 1.1244,0.33866 0.7017,21.58469 0.40915,-0.78712 1.05529,-10.02909 0.14639,11.42139 1.1859,2.80248 1.34157,-2.98397 0.16859,-22.22993 0.98973,-2.79668 0.93986,7.85895 -0.024,9.57134 1.01405,-17.95071 1.17139,5.2978 0.63681,11.44656 0.68584,-18.56341 0.8466,-25.04701 -0.008,-18.35454 0.96173,-12.87247 0.9771,2.54346 0.80623,2.3329 0.58272,34.26809 1.08907,19.6187 0.42282,-11.20529 1.28061,-4.10371 1.20968,-18.2132 -0.0614,-16.13039 0.85682,-23.54063 1.03907,-2.79575 0.52798,25.52186 1.90004,-8.27897 1.10279,-8.82237 0.30936,13.46824 1.01111,-10.72019 1.24175,7.8772 0.83139,-3.13273 0.66809,21.58425 1.13643,-2.0899 1.04741,-0.20316 0.96212,26.02518 1.23267,7.96877 0.29084,-20.53032 1.04071,-7.60092 1.11037,5.61141 0.4335,1.41291 1.29725,-3.74289 1.68439,-5.61813 0.31034,-19.89831 0.56673,-5.37803 1.27899,2.46832 0.18045,16.19744 1.06166,-8.14616 1.49998,-11.98516 0.51805,-18.07554 0.56091,8.39275 1.12677,13.54692 1.28776,-9.29339 0.89369,-23.35651 1.64562,-35.30022 0.57813,12.33633 0.52861,24.69639 0.81172,37.04288 -0.0108,-12.6279 0.76474,-26.47203 0.99838,-5.40098 0.0444,17.377 0.81573,-4.62667 1.35575,-9.52758 0.64719,17.60844 2.00404,9.03768 1.21769,9.21431 0.22959,7.96267 0.21893,-26.94858 1.11118,-12.0453 0.43962,21.29631 0.32798,-11.0821 0.47307,-18.46311 0.43302,-30.762399 0.0909,-61.769609 1.25687,-92.37856 1.0313,32.263405 0.81305,64.5593 1.21758,96.83688 0.19343,-20.71194 0.98914,-3.9303 0.96469,7.21582 0.13016,25.82242 0.46389,-21.45919 0.99386,1.58008 -0.0204,13.45427 0.9838,4.02977 1.01922,13.37674 0.0304,-10.65425 0.85098,-16.87614 1.29147,-11.31478 0.14251,18.74397 0.81826,-7.89174 1.28882,-13.69328 0.43669,-11.7349 1.37221,-2.78216 1.29983,8.91031 0.56473,6.11719 0.86866,-23.72638 1.25062,-1.07421 0.46957,-6.41774 1.08015,24.3919 1.2018,2.47396 0.43686,-10.64833 0.88443,-17.26496 0.91806,-29.9201 0.65141,-15.219519 1.265,3.38937 1.18993,10.6701 -0.1516,8.06923 0.8135,24.4017 0.89589,20.5469 0.36205,-13.31252 0.0459,-28.47139 0.83658,-40.716731 0.41355,12.322971 0.47773,22.334431 1.05529,33.369431 0.63377,-4.70964 0.94018,-23.28676 1.38001,-19.58097 0.29246,14.24199 0.70994,28.48088 0.97406,42.72338 0.53687,-5.03504 0.30363,-33.80574 1.17731,-17.7571 0.5492,-7.01918 0.71533,-20.93825 1.17355,-10.38379 0.58763,-27.222023 0.71589,15.48589 1.26095,2.8845 0.23245,-6.33243 0.68863,-26.90993 1.26582,-10.92385 0.15797,25.93154 0.46235,-10.85636 0.97537,6.37249 0.0553,7.39604 1.00485,28.25741 1.10347,18.00079 0.36294,-11.89752 0.003,-27.21743 0.83646,-37.16492 0.18548,19.24248 0.90834,13.99646 1.29878,-2.09757 0.69233,9.96067 0.26287,24.01839 0.97411,31.7506 0.6895,-5.67826 0.72126,-33.67213 1.33502,-18.87178 0.21739,20.63449 1.02268,6.30169 1.10022,-6.16978 0.70903,-11.856763 0.4389,-31.42644 0.77612,-46.271707 -0.15342,-12.023838 0.80487,-26.137738 0.90743,-5.270262 0.32861,20.864905 0.36959,41.734979 0.91402,62.596059"
     id="path384"
     inkscape:connector-curvature="0"
     transform="matrix(1,0,0,0.77362275,-17.837269,-12.001717)" />
  <g
     id="patch_3"
     style="stroke-linecap:butt;stroke-linejoin:round"
     transform="matrix(1.0000225,0,0,0.95107877,22.75641,5.3845813)">
    <path
       d="M 63.346563,509.66 V 10.7"
       style="fill:none;stroke:#000000;stroke-width:0.80000001;stroke-linecap:square;stroke-linejoin:miter"
       id="path390"
       inkscape:connector-curvature="0" />
  </g>
  <g
     id="patch_4"
     style="stroke-linecap:butt;stroke-linejoin:round"
     transform="matrix(1.0000225,0,0,0.95107877,-32.136497,5.3845813)">
    <path
       d="M 956.14656,509.66 V 10.7"
       style="fill:none;stroke:#000000;stroke-width:0.80000001;stroke-linecap:square;stroke-linejoin:miter"
       id="path393"
       inkscape:connector-curvature="0" />
  </g>
  <g
     id="patch_6"
     style="stroke-linecap:butt;stroke-linejoin:round"
     transform="matrix(0.93837976,0,0,1.0000136,26.678679,4.9728023)">
    <path
       d="M 63.346563,10.7 H 956.14656"
       style="fill:none;stroke:#000000;stroke-width:0.80000001;stroke-linecap:square;stroke-linejoin:miter"
       id="path399"
       inkscape:connector-curvature="0" />
  </g>
  <defs
     id="defs432">
    <clipPath
       id="p625fecc4e6"
       style="stroke-linecap:butt;stroke-linejoin:round">
      <rect
         height="498.95999"
         width="892.79999"
         x="63.346561"
         y="10.7"
         id="rect429"
         style="stroke-linecap:butt;stroke-linejoin:round" />
    </clipPath>
  </defs>
  <text
     xml:space="preserve"
     style="font-style:normal;font-variant:normal;font-weight:normal;font-stretch:normal;font-size:30px;line-height:125%;font-family:'Times New Roman';-inkscape-font-specification:'Times New Roman, ';letter-spacing:0px;word-spacing:0px;fill:#000000;fill-opacity:1;stroke:none;stroke-width:0.75px;stroke-linecap:butt;stroke-linejoin:miter;stroke-opacity:1"
     x="-295.09787"
     y="25.317383"
     id="text2878"
     transform="rotate(-90)"><tspan
       sodipodi:role="line"
       id="tspan2876"
       style="stroke-width:0.75px;stroke-linecap:butt;stroke-linejoin:round"
       x="-295.09787"
       y="25.317383"><tspan
   style="font-style:italic;font-variant:normal;font-weight:normal;font-stretch:normal;font-family:'Times New Roman';-inkscape-font-specification:'Times New Roman,  Italic';stroke-width:0.75px;stroke-linecap:butt;stroke-linejoin:round"
   id="tspan2880">R</tspan> [m]</tspan></text>
  <text
     xml:space="preserve"
     style="font-style:normal;font-variant:normal;font-weight:normal;font-stretch:normal;font-size:30px;line-height:125%;font-family:'Times New Roman';-inkscape-font-specification:'Times New Roman, ';letter-spacing:0px;word-spacing:0px;fill:#000000;fill-opacity:1;stroke:none;stroke-width:0.75px;stroke-linecap:butt;stroke-linejoin:miter;stroke-opacity:1"
     x="480.77347"
     y="552.36737"
     id="text2904"><tspan
       sodipodi:role="line"
       id="tspan2902"
       style="stroke-width:0.75px;stroke-linecap:butt;stroke-linejoin:round"
       x="480.77347"
       y="552.36737"><tspan
   style="font-style:italic;font-variant:normal;font-weight:normal;font-stretch:normal;font-family:'Times New Roman';-inkscape-font-specification:'Times New Roman,  Italic';stroke-width:0.75px;stroke-linecap:butt;stroke-linejoin:round"
   id="tspan2906">t</tspan> [s]</tspan></text>
  <text
     xml:space="preserve"
     style="font-style:normal;font-variant:normal;font-weight:normal;font-stretch:normal;font-size:30px;line-height:125%;font-family:'Times New Roman';-inkscape-font-specification:'Times New Roman, ';letter-spacing:0px;word-spacing:0px;fill:#000000;fill-opacity:1;stroke:none;stroke-width:0.75px;stroke-linecap:butt;stroke-linejoin:miter;stroke-opacity:1"
     x="79.211845"
     y="519.00482"
     id="text3016"><tspan
       sodipodi:role="line"
       id="tspan3014"
       style="stroke-width:0.75px;stroke-linecap:butt;stroke-linejoin:round"
       x="79.211845"
       y="519.00482">0</tspan></text>
  <text
     xml:space="preserve"
     style="font-style:normal;font-variant:normal;font-weight:normal;font-stretch:normal;font-size:30px;line-height:125%;font-family:'Times New Roman';-inkscape-font-specification:'Times New Roman, ';letter-spacing:0px;word-spacing:0px;fill:#000000;fill-opacity:1;stroke:none;stroke-width:0.75px;stroke-linecap:butt;stroke-linejoin:miter;stroke-opacity:1"
     x="273.46439"
     y="519.00482"
     id="text3020"><tspan
       sodipodi:role="line"
       id="tspan3018"
       style="stroke-width:0.75px;stroke-linecap:butt;stroke-linejoin:round"
       x="273.46439"
       y="519.00482">200</tspan></text>
  <text
     xml:space="preserve"
     style="font-style:normal;font-variant:normal;font-weight:normal;font-stretch:normal;font-size:30px;line-height:125%;font-family:'Times New Roman';-inkscape-font-specification:'Times New Roman, ';letter-spacing:0px;word-spacing:0px;fill:#000000;fill-opacity:1;stroke:none;stroke-width:0.75px;stroke-linecap:butt;stroke-linejoin:miter;stroke-opacity:1"
     x="482.58517"
     y="519.00482"
     id="text3024"><tspan
       sodipodi:role="line"
       id="tspan3022"
       style="stroke-width:0.75px;stroke-linecap:butt;stroke-linejoin:round"
       x="482.58517"
       y="519.00482">400</tspan></text>
  <text
     xml:space="preserve"
     style="font-style:normal;font-variant:normal;font-weight:normal;font-stretch:normal;font-size:30px;line-height:125%;font-family:'Times New Roman';-inkscape-font-specification:'Times New Roman, ';letter-spacing:0px;word-spacing:0px;fill:#000000;fill-opacity:1;stroke:none;stroke-width:0.75px;stroke-linecap:butt;stroke-linejoin:miter;stroke-opacity:1"
     x="691.20789"
     y="519.00482"
     id="text3028"><tspan
       sodipodi:role="line"
       id="tspan3026"
       style="stroke-width:0.75px;stroke-linecap:butt;stroke-linejoin:round"
       x="691.20789"
       y="519.00482">600</tspan></text>
  <text
     xml:space="preserve"
     style="font-style:normal;font-variant:normal;font-weight:normal;font-stretch:normal;font-size:30px;line-height:125%;font-family:'Times New Roman';-inkscape-font-specification:'Times New Roman, ';letter-spacing:0px;word-spacing:0px;fill:#000000;fill-opacity:1;stroke:none;stroke-width:0.75px;stroke-linecap:butt;stroke-linejoin:miter;stroke-opacity:1"
     x="899.97705"
     y="519.00482"
     id="text3032"><tspan
       sodipodi:role="line"
       id="tspan3030"
       style="stroke-width:0.75px;stroke-linecap:butt;stroke-linejoin:round"
       x="899.97705"
       y="519.00482">800</tspan></text>
  <text
     xml:space="preserve"
     style="font-style:normal;font-variant:normal;font-weight:normal;font-stretch:normal;font-size:30px;line-height:125%;font-family:'Times New Roman';-inkscape-font-specification:'Times New Roman, ';letter-spacing:0px;word-spacing:0px;fill:#000000;fill-opacity:1;stroke:none;stroke-width:0.75px;stroke-linecap:butt;stroke-linejoin:miter;stroke-opacity:1"
     x="65.209045"
     y="498.24258"
     id="text1777"><tspan
       sodipodi:role="line"
       id="tspan1775"
       style="stroke-width:0.75px;stroke-linecap:butt;stroke-linejoin:round"
       x="65.209045"
       y="498.24258">0</tspan></text>
  <text
     xml:space="preserve"
     style="font-style:normal;font-variant:normal;font-weight:normal;font-stretch:normal;font-size:30px;line-height:125%;font-family:'Times New Roman';-inkscape-font-specification:'Times New Roman, ';letter-spacing:0px;word-spacing:0px;fill:#000000;fill-opacity:1;stroke:none;stroke-width:0.75px;stroke-linecap:butt;stroke-linejoin:miter;stroke-opacity:1"
     x="67.801819"
     y="360.46826"
     id="text1777-7"><tspan
       sodipodi:role="line"
       id="tspan1775-9"
       style="stroke-width:0.75px;stroke-linecap:butt;stroke-linejoin:round"
       x="67.801819"
       y="360.46826">1</tspan></text>
  <text
     xml:space="preserve"
     style="font-style:normal;font-variant:normal;font-weight:normal;font-stretch:normal;font-size:30px;line-height:125%;font-family:'Times New Roman';-inkscape-font-specification:'Times New Roman, ';letter-spacing:0px;word-spacing:0px;fill:#000000;fill-opacity:1;stroke:none;stroke-width:0.75px;stroke-linecap:butt;stroke-linejoin:miter;stroke-opacity:1"
     x="65.384827"
     y="246.21638"
     id="text1777-76"><tspan
       sodipodi:role="line"
       id="tspan1775-3"
       style="stroke-width:0.75px;stroke-linecap:butt;stroke-linejoin:round"
       x="65.384827"
       y="246.21638">2</tspan></text>
  <text
     xml:space="preserve"
     style="font-style:normal;font-variant:normal;font-weight:normal;font-stretch:normal;font-size:30px;line-height:125%;font-family:'Times New Roman';-inkscape-font-specification:'Times New Roman, ';letter-spacing:0px;word-spacing:0px;fill:#000000;fill-opacity:1;stroke:none;stroke-width:0.75px;stroke-linecap:butt;stroke-linejoin:miter;stroke-opacity:1"
     x="66.629944"
     y="142.04556"
     id="text1777-1"><tspan
       sodipodi:role="line"
       id="tspan1775-5"
       style="stroke-width:0.75px;stroke-linecap:butt;stroke-linejoin:round"
       x="66.629944"
       y="142.04556">3</tspan></text>
  <text
     xml:space="preserve"
     style="font-style:normal;font-variant:normal;font-weight:normal;font-stretch:normal;font-size:30px;line-height:125%;font-family:'Times New Roman';-inkscape-font-specification:'Times New Roman, ';letter-spacing:0px;word-spacing:0px;fill:#000000;fill-opacity:1;stroke:none;stroke-width:0.75px;stroke-linecap:butt;stroke-linejoin:miter;stroke-opacity:1"
     x="65.179749"
     y="25.273438"
     id="text1777-16"><tspan
       sodipodi:role="line"
       id="tspan1775-8"
       style="stroke-width:0.75px;stroke-linecap:butt;stroke-linejoin:round"
       x="65.179749"
       y="25.273438">4</tspan></text>
  <g
     id="patch_6-8"
     style="stroke-linecap:butt;stroke-linejoin:round"
     transform="matrix(0.93837973,0,0,1.0000136,26.661268,479.41124)">
    <path
       d="M 63.346563,10.7 H 956.14656"
       style="fill:none;stroke:#000000;stroke-width:0.80000001;stroke-linecap:square;stroke-linejoin:miter"
       id="path399-2"
       inkscape:connector-curvature="0" />
  </g>
  <path
     style="fill:none;stroke:#ff0000;stroke-width:5.20933533;stroke-linecap:square;stroke-linejoin:round;stroke-miterlimit:4;stroke-dasharray:none;stroke-opacity:1"
     clip-path="url(#pa2d81ef333)"
     d="m 113.47213,33.38 c 0.0851,108.498 0.64026,216.99446 1.05523,325.49151 0.22353,-38.03697 0.43826,-78.82132 0.97409,-115.14726 0.56828,49.19266 0.57762,98.39105 0.89289,147.58614 0.389,-36.00355 0.39923,-72.01228 0.81177,-108.01501 0.77516,40.45175 0.73527,80.91865 1.05523,121.37724 0.37438,-32.62024 -0.0879,-65.28294 0.97407,-97.87517 0.54916,31.73569 0.5039,84.03834 0.97408,103.43203 0.15484,-23.72212 0.68337,-96.94989 1.22561,-35.34298 0.28023,58.33976 0.73628,31.12959 0.89976,-10.6658 0.10476,-81.81777 2.08902,115.71829 1.44627,51.43674 0.18553,-37.9842 0.94579,-71.00249 1.55811,-15.11139 0.65355,58.45447 0.0263,-38.07552 1.44536,-14.57769 0.76744,64.22208 2.28736,-1.21247 1.66252,4.50668 1.12108,51.6982 2.60942,2.19132 1.74124,12.6739 1.36673,5.30573 0.82596,46.98468 2.19741,-2.25731 0.67602,43.42715 3.08363,33.53989 2.19174,15.71104 0.71614,25.83631 4.11338,0.3726 3.00344,5.18449 0.99899,-7.9419 1.77547,5.50597 1.94832,13.04716 0.74017,-35.1107 1.77627,27.75025 2.76002,-15.79694 0.67507,62.05092 1.14902,-29.72604 2.41923,20.58383 0.1549,-14.54054 2.32992,-7.99859 2.75242,-3.37568 0.99019,16.24262 2.02803,-14.40366 2.94611,5.72102 2.63496,-22.62874 1.79204,28.01527 2.8731,-9.05274 3.11617,32.37486 2.90831,18.31634 2.80946,11.41577 0.70107,-20.43322 3.82332,-16.20652 2.35426,-6.70262 0.76534,6.02783 4.26263,5.25427 2.76007,4.79784 0.65595,7.38945 2.96388,-16.94274 2.9224,7.28976 0.45917,-19.01591 3.91024,-13.99437 3.00359,-6.31591 0.97905,-11.41986 4.29007,-3.69301 2.84128,2.69248 1.09429,-15.61003 8.5205,31.31615 3.40932,2.69249 1.40047,-14.0434 4.49757,5.19476 2.51658,-5.25614 1.47433,1.89372 3.39504,1.39866 2.84124,-1.63268 1.13127,6.30142 4.10623,10.07913 2.84122,2.24849 1.20025,-2.86798 3.79682,-6.9512 2.76013,0.21483 2.47792,-1.12603 0.30076,2.97159 2.51657,-3.63777 1.94553,5.51787 4.23985,-1.77017 3.08478,3.78096 0.1657,-17.26169 1.30462,10.75399 2.59779,-0.20058 0.4272,2.12943 2.56293,11.6804 2.76012,-6.00083 1.19022,18.23016 3.99038,16.44586 2.5977,3.48024 0.7803,6.73077 2.67778,8.23172 3.73428,0.73041 1.59158,11.26343 1.96878,-16.13041 2.51655,5.9865 1.10153,3.15803 2.31006,-5.01211 2.51673,-0.60158 0.4131,-4.94406 4.68186,-3.75322 3.16598,-2.95032 1.15799,3.44035 1.03755,-3.2882 3.16589,6.8028 1.31706,-9.22614 2.01236,-7.30671 2.67901,-8.27806 1.03981,7.30966 3.14931,-10.00567 2.58971,-4.24523 1.23152,6.45984 0.59092,13.66694 2.4435,8.84251 1.30017,-1.79894 4.10616,15.2517 3.00355,4.81212 1.35851,-27.34588 4.98411,-10.75313 2.76009,-2.80712 1.61819,-1.86182 4.745,12.62329 3.08479,0.40102 1.6586,-6.1269 2.704,6.61998 2.92236,-10.59813 0.38373,20.11709 3.26237,0.52303 2.76006,4.05307 0.49618,0.83543 1.41739,5.02009 2.51661,3.72373 0.42286,12.76257 2.93159,7.16048 2.67898,-1.9048 0.88286,6.60489 3.77738,13.26074 2.84124,3.79528 1.10716,-1.35141 1.98514,2.49905 3.32837,-1.3892 2.72674,-2.43703 0.37845,20.02185 3.08478,-2.66387 0.57509,12.67034 3.69066,16.5096 2.43544,6.47344 1.24003,-7.44385 4.21699,-6.36231 3.00367,-4.26787 0.47742,8.7498 1.72083,-5.34094 2.67897,4.76916 0.19561,-11.16435 1.71051,8.88713 2.8413,-1.28898 0.45406,-8.28527 3.51485,-11.25334 2.6789,-1.9764 1.36439,5.36918 3.05848,10.67648 2.81286,2.59909 3.371,-9.67757 -6.65599,6.28819 2.95085,-5.21998 1.48834,-18.05622 1.88418,16.55354 2.84124,-2.54927 -0.71814,8.49504 4.3226,7.0287 3.81516,7.18954 2.0263,4.78873 2.23534,1.33176 2.92244,-3.72363 1.10162,15.10595 3.76517,7.53224 3.65623,-0.83945 1.35502,18.24117 -0.43513,5.64619 3.00027,3.56056 1.90151,5.89234 1.69465,-7.42962 3.32849,3.66635 0.17189,-12.21292 4.19372,-16.16589 3.57176,-6.96039 1.31522,7.19293 4.94566,6.23764 3.8153,3.98143 0.5667,2.20981 3.26478,-8.09299 3.0632,-4.74708 0.44793,-3.37016 3.38626,1.3763 2.6194,5.5061 1.39072,-6.8792 3.86908,7.98186 2.3543,-5.31338 0.15018,15.04983 4.80752,17.07483 3.16594,7.01769 1.53552,-1.82884 1.69752,-1.47033 3.00369,-1.64697 1.05641,-10.22001 1.61817,10.32117 3.166,-5.52825 0.45452,14.25032 3.17374,19.04581 2.92247,8.14907 0.64431,-9.01896 3.47264,5.88423 2.84125,-0.38664 1.01623,-4.71548 3.70134,-22.85803 3.8153,-10.97051 0.46561,10.58086 3.34053,-5.1683 2.76009,5.52823 0.84403,10.38083 4.59121,10.21444 3.81523,3.83821 4.09049,-2.90938 1.95237,8.76824 3.13189,-5.09129 0.29183,8.16854 3.52049,6.19459 4.01171,3.41564 1.03755,3.43026 4.48867,11.19655 2.67896,2.01939 0.80874,-2.36232 4.37087,7.14505 4.87054,-6.38753 0.26982,13.52914 3.98554,0.77101 3.24707,3.62342 1.55221,-1.06242 4.08982,2.5549 3.32827,2.49202 0.92659,-8.76648 6.37078,17.35522 3.40945,1.71866 2.32016,1.95549 2.90985,-4.65538 4.05902,-1.7616 1.25651,-0.78839 1.10115,3.00048 4.22141,-0.94523 -0.035,-7.25257 2.24657,11.00075 2.84126,-4.08174 1.78251,-19.72373 1.14364,17.12392 4.46465,4.49705 1.99651,-3.26261 1.9977,0.48548 3.24705,-4.06745 0.69611,3.22574 2.40505,0.8149 2.51665,6.45908 1.99551,-2.04129 4.98573,9.25757 3.40943,1.11714 1.14712,-4.26978 5.67596,-8.62903 4.38345,-2.85001 0.24073,-16.651 1.81917,15.47527 3.32834,-1.66131 1.0642,8.81126 4.53434,6.99158 3.49062,1.94773 1.93391,8.22288 2.29309,-15.54111 3.6531,-0.57288 1.12307,-7.84682 0.73123,1.93238 3.4906,-1.91914 1.09324,12.42616 2.6409,-5.18893 3.73423,-0.42963 1.98653,19.53353 3.14615,-16.06125 4.62729,3.80962 0.41067,-6.10785 1.84355,3.05231 3.57184,0.11458 4.59847,1.33871 1.29859,-6.75448 4.05876,1.67568 1.29697,-11.7552 1.48404,-2.67149 3.0849,0.0288 1.71059,-7.36001 2.304,4.97695 3.97777,-5.77172 1.91199,9.70684 6.15531,10.09131 4.13986,1.80458 -1.48517,2.07714 4.74377,-6.52013 3.08483,-0.0716 2.00033,7.28763 4.96579,14.58735 3.49057,3.80961 1.47377,-9.99842 5.42142,-5.29482 3.3284,-3.02193 1.32395,-3.38278 1.8118,5.31412 3.08487,-0.043 1.44696,5.34558 1.28156,-7.53639 2.8414,0.84494 0.82855,2.64593 2.27357,-9.28601 3.24714,3.27969 3.48779,-23.12916 -0.51693,4.40586 3.89644,-1.91917 1.5321,0.49318 1.57131,-0.32304 3.40956,-2.34885 1.0474,-7.08619 6.40107,-3.30774 4.38348,-0.15753 1.51814,5.10495 2.57816,0.7043 3.65319,-0.71608 0.98532,-1.51374 2.16581,2.5703 2.67899,3.12208 2.23244,-10.61458 4.91023,-7.6603 3.08475,-2.44906 2.44113,11.25793 5.22139,-3.95548 6.57559,5.19876 2.01038,-13.38007 5.35147,-7.92167 3.32829,-4.32514 0.72225,-5.28118 3.62692,0.81089 2.76015,1.61833 0.95175,-9.66224 4.79571,-6.64688 3.24712,-2.29144 1.08471,3.35166 1.5531,-2.43178 3.2473,3.46589 0.68884,-9.92348 2.39557,8.10167 3.73407,-4.89805 0.39873,17.62556 3.03252,-14.47159 3.16601,3.17942 0.89464,-8.38918 4.02968,-12.0332 2.19202,-4.59733 0.65683,7.99322 1.7549,-3.26837 3.08479,4.98397 0.81135,2.08605 2.15455,-5.25133 3.16601,1.01678 0.99077,-6.22522 2.65226,-2.1497 3.73429,-2.60657 1.92771,6.60297 2.83574,-10.92351 3.40955,2.09098 2.04418,-6.70017 0.13742,3.76621 3.0036,-1.84752 2.24025,-8.14579 2.74424,6.59499 4.13987,1.67562 1.78515,-4.69486 1.89288,-0.69512 3.08487,-1.84759 2.71624,-1.24253 2.98075,4.55966 4.54606,0.12887 1.28323,3.68988 1.60972,-5.42396 3.24721,2.56364 1.13901,-14.29856 1.87076,8.96777 3.49049,-4.45412 1.67164,8.8849 2.09991,-5.6495 4.05889,3.8669 0.74939,-7.77191 5.06307,-2.21535 3.81533,-0.83073 1.85377,-0.4989 2.05125,-1.33147 3.24728,0.65878 1.42193,-11.0685 2.87149,6.08517 4.54602,-1.11715 1.63174,1.19557 5.47794,-2.14025 4.22105,-0.27212 2.46593,-3.01437 0.28552,2.59787 3.0848,-1.53242 0.92844,7.64364 -0.92333,-1.03072 2.76009,-0.97388 1.50144,4.76772 4.80431,-8.56847 3.65294,-2.00506 -0.15898,9.93093 3.35374,-3.39158 3.57174,-0.45828 1.45924,8.21063 3.04301,4.78868 4.5461,6.20129 2.51133,0.4675 2.09535,-2.8894 3.57185,0.97386 2.48682,-4.35892 1.88442,-7.2497 2.59776,-2.37745 0.81241,2.65597 1.48051,-0.55279 2.92249,1.43216 0.0508,-12.35753 1.8766,6.85264 3.00367,-3.83829 1.91616,6.08171 2.38353,2.03108 4.46473,4.21053 1.46169,-7.80908 3.20795,9.15406 3.7342,-5.01261 1.00522,4.34623 3.55408,4.90023 4.46472,-0.5872 0.57107,11.27522 3.94774,14.96989 2.84129,7.23259 2.44687,-7.81031 1.34913,2.38375 3.3283,-6.05816 0.97173,14.2252 2.65587,-9.01497 3.73431,3.76657 0.64174,-14.16834 6.01589,-8.24705 3.73404,-0.52992 1.38929,-0.8826 3.79743,-0.30956 2.67895,-1.91904 2.30899,5.86348 2.0644,-4.62138 2.84126,-1.28899 0.27072,6.72575 2.14205,-1.59881 3.08479,4.66887 1.4233,-9.69745 3.06706,-2.12349 4.05892,-1.66121 1.11645,1.09423 2.39306,4.72546 3.08489,-3.55164 1.55352,6.1419 5.52107,-3.29515 3.9776,0.0143 1.8178,10.89164 1.97183,-9.35097 2.92249,1.80447 1.00318,5.21525 5.21482,7.81505 3.65296,2.62081 1.16223,-6.76716 1.64666,6.73807 3.08491,-3.09351 1.39323,16.42358 3.25533,9.48986 3.09427,-1.73182 0.66554,7.80179 2.8849,0.10062 4.53663,6.34356 1.02899,-10.24201 3.47387,4.605 4.30249,-4.41102 0.59756,9.43795 1.91959,-3.99325 3.00365,4.84075 1.42236,-11.02896 1.33822,-3.03667 3.49064,-1.17437 1.78753,-5.67182 4.46493,4.72074 5.43889,-7.7624 1.28685,7.72758 5.3112,5.7551 3.81521,4.39678 1.4805,-5.73077 2.32392,9.83571 3.2472,-1.70427 0.68722,11.88439 3.148,-8.13917 3.40949,1.81886 1.3433,1.74587 2.34011,0.61509 5.03307,1.56095 1.25431,1.32838 4.57202,-5.93686 3.73412,-4.16762 -0.0709,7.95068 2.29438,1.27045 3.49059,5.92926 1.43748,-5.2852 2.1907,-0.29459 3.32824,-2.134 1.03004,-13.14231 2.24372,9.47384 3.65312,-1.94779 1.09567,4.34037 3.16199,3.8716 4.05889,1.40353 1.73843,-0.84698 4.26255,0.79245 3.3282,0.27212 1.0217,-0.93372 3.90952,2.1057 3.00365,1.70428 2.24675,-2.76321 2.53168,0.73175 4.05899,-0.75905 1.38141,-6.83084 2.47344,2.78831 3.97785,-2.23426 1.52852,5.81646 2.4249,-4.99643 3.32848,4.8552 0.1696,-7.90034 3.3318,-3.07862 3.00367,-3.78096 1.62661,-4.3897 5.17578,3.23377 3.4907,1.54677 2.20076,-3.05309 2.64572,-4.6049 3.89685,0.61588 1.05047,-7.78176 1.51463,3.29687 3.89668,-3.00767 2.31262,-0.51082 0.94981,-2.31238 3.7341,2.30584 1.49573,-1.33673 4.60503,4.88782 3.24712,-0.44393 0.82522,-14.87454 1.35141,8.41815 2.84141,-2.37743 0.91213,5.53578 3.1975,3.83227 2.76015,1.00249 1.8713,-3.81139 2.45277,-5.02257 3.59135,1.35528 1.44051,1.67083 2.65086,-2.0523 4.12062,-2.20026 0.81043,3.16339 5.7239,-10.38031 4.22104,-3.39431 0.93745,7.78777 1.4127,4.75324 3.24725,1.53244 1.86439,4.78313 2.45397,9.50862 3.49061,-0.10032 4.26027,7.58083 -2.72654,19.56623 3.73416,0.50129 1.18448,-2.73071 4.01883,-8.58525 2.51656,0.0716 0.43718,7.92844 3.84199,12.6004 2.67895,4.81211 1.59434,-8.05836 3.387,-10.81432 2.92243,-3.17941 0.97583,9.21593 2.95001,-9.13189 3.40951,2.16262 1.45562,-10.37478 3.05017,9.64445 4.05898,-5.14156 1.02826,9.00433 3.53794,6.13488 3.89643,4.22488 1.62845,-2.43825 2.57772,-2.65363 4.38365,1.91912 1.78053,-7.81735 5.51971,-0.55121 3.89637,-1.91913 0.67143,-4.55582 2.20163,7.13555 3.81533,-1.89052 0.52148,12.24983 2.1212,-9.08819 2.67896,4.91232 0.27647,-15.49692 1.69819,-1.39311 2.84135,-0.043 0.40175,-5.79868 2.4586,-1.83759 3.57195,-4.19633 0.58351,5.93582 3.57702,12.22452 2.84135,2.43472 0.83296,-12.15195 4.02186,7.7047 3.3283,-1.23167 3.31351,-4.31988 1.29495,0.94594 4.05877,-2.66384 0.69541,9.98043 2.88664,-3.44023 4.54622,2.76408 1.49483,-5.31959 5.76636,2.99195 3.73409,-0.75907 0.83477,3.46244 3.93981,14.25705 3.08476,3.48022 2.97544,-16.29037 0.88944,-5.9539 3.00361,-5.5425 1.87543,12.20611 3.30376,-9.56593 4.70839,5.41361 1.66049,-6.33121 2.81032,-3.08103 3.73425,-4.75489 1.73109,11.48458 3.1022,-17.80889 3.73411,2.87869 2.21473,-10.51071 4.92511,-8.44271 3.49057,-2.26285 1.86413,2.16394 4.895,9.76589 3.24712,0.41536 1.59897,5.2586 3.0053,-7.60597 3.89664,0.93093 1.23893,-5.69283 2.84059,10.48197 3.08483,-6.60239 1.17805,12.12158 2.51686,1.36139 4.05891,7.0177 1.8376,3.66711 4.55351,13.83204 2.84135,1.7043 0.4502,-9.27817 2.54968,1.56278 3.49061,-5.85761 2.02774,10.32209 5.81855,9.13479 4.22118,3.86685 1.16618,-1.91127 3.34006,-3.5168 3.65303,-4.08175 0.7028,1.02608 2.75895,2.03997 4.14002,5.21315 0.6379,-8.93967 1.6291,5.58705 3.08503,-2.50626 0.9816,-3.11099 2.27501,8.85038 3.73418,-3.95278 2.1553,4.52876 1.05679,4.59123 3.57176,3.12215 0.32393,-0.76893 3.75383,3.63664 3.24706,-2.96457 0.42033,7.05141 2.44512,2.12391 3.65308,6.31611 0.59994,-9.93739 5.73659,-3.41549 4.22108,-2.74978 0.95568,5.9843 3.15987,-3.95106 3.32851,5.08424 1.85942,-15.84383 2.368,9.03115 3.60506,-7.9339 1.62736,0.57015 4.15379,1.59463 2.72691,3.68029 1.62374,-1.39152 3.4495,1.47222 3.65287,-0.85934 0.43539,5.44309 4.17418,8.95079 3.16598,2.57798 1.14267,-14.90655 1.69024,8.35325 2.92237,-5.11293 1.75256,11.15343 2.47396,-3.50859 3.81539,4.49709 0.17723,-24.48956 0.7114,9.17113 3.00372,-0.5729 1.51148,-3.98632 4.00428,-2.72013 3.08477,-1.13148 0.98669,4.07528 2.22118,2.06682 3.00357,-0.47261"
     id="path398"
     inkscape:connector-curvature="0"
     transform="matrix(1,0,0,0.0829121,-27.487126,323.58097)"
     sodipodi:nodetypes="cccccccccccccccccccccccccccccccccccccccccccccccccccccccccccccccccccccccccccccccccccccccccccccccccccccccccccccccccccccccccccccccccccccccccccccccccccccccccccccccccccccccccccccccccccccccccccccccccccccccccccccccccccccccccccccccccccccccccccccccccccccccccccc" />
  <g
     id="g961"
     transform="translate(-191.53989,153.73597)"
     style="stroke-linecap:butt;stroke-linejoin:round">
    <rect
       y="-101.17973"
       x="320.91333"
       height="72.247505"
       width="329.31421"
       id="rect952"
       style="opacity:0.56400003;fill:#ffffff;fill-opacity:1;stroke:none;stroke-width:2.25;stroke-linecap:butt;stroke-linejoin:round;stroke-miterlimit:4;stroke-dasharray:none;stroke-dashoffset:30;stroke-opacity:1" />
    <path
       sodipodi:nodetypes="cc"
       transform="matrix(0.70097904,0,0,1.0530695,-309.78944,-115.21196)"
       inkscape:connector-curvature="0"
       id="path384-5"
       d="m 914.27217,67.035766 35.50976,0.296698"
       clip-path="url(#p625fecc4e6-0)"
       style="fill:none;stroke:#0000ff;stroke-width:1.70540142;stroke-linecap:square;stroke-linejoin:round;stroke-miterlimit:4;stroke-dasharray:none;stroke-opacity:1" />
    <path
       sodipodi:nodetypes="cc"
       transform="matrix(0.70097904,0,0,1.0530695,-311.21593,-152.78729)"
       inkscape:connector-curvature="0"
       id="path384-5-7"
       d="m 914.27217,67.035766 35.50976,0.296698"
       clip-path="url(#p625fecc4e6-0-7)"
       style="fill:none;stroke:#f50000;stroke-width:1.70540142;stroke-linecap:square;stroke-linejoin:round;stroke-miterlimit:4;stroke-dasharray:none;stroke-opacity:1" />
    <text
       id="text946"
       y="-73.456863"
       x="366.27805"
       style="font-style:normal;font-variant:normal;font-weight:normal;font-stretch:normal;font-size:30px;line-height:125%;font-family:'Times New Roman';-inkscape-font-specification:'Times New Roman, ';letter-spacing:0px;word-spacing:0px;fill:#000000;fill-opacity:1;stroke:none;stroke-width:0.75px;stroke-linecap:butt;stroke-linejoin:miter;stroke-opacity:1"
       xml:space="preserve"><tspan
         y="-73.456863"
         x="366.27805"
         style="stroke-width:0.75px;stroke-linecap:butt;stroke-linejoin:round"
         id="tspan944"
         sodipodi:role="line">Sum of kernel function</tspan></text>
    <text
       id="text950"
       y="-38.029057"
       x="364.98807"
       style="font-style:normal;font-variant:normal;font-weight:normal;font-stretch:normal;font-size:30px;line-height:125%;font-family:'Times New Roman';-inkscape-font-specification:'Times New Roman, ';letter-spacing:0px;word-spacing:0px;fill:#000000;fill-opacity:1;stroke:none;stroke-width:0.75px;stroke-linecap:butt;stroke-linejoin:miter;stroke-opacity:1"
       xml:space="preserve"><tspan
         y="-38.029057"
         x="364.98807"
         style="stroke-width:0.75px;stroke-linecap:butt;stroke-linejoin:round"
         id="tspan948"
         sodipodi:role="line">Time differential</tspan></text>
  </g>
</svg>
